<svg width="74" height="766" viewBox="0 0 74 766" fill="none" xmlns="http://www.w3.org/2000/svg">
<path d="M8.2569 20.5596V17.983L14.0743 20.5596H13.1271V33.8513C13.1271 36.5612 13.0109 39.5377 12.7696 42.7629C12.5373 45.997 12.0458 49.2932 11.3131 52.6517C10.5803 56.0102 9.40966 59.3154 7.81009 62.5406C6.21053 65.7747 4.04799 68.7689 1.32247 71.5321L0.375244 70.5903C2.788 66.8409 4.53948 62.9049 5.64755 58.7823C6.7467 54.6686 7.45265 50.4927 7.77435 46.2724C8.08711 42.0521 8.24796 37.9295 8.24796 33.9224V20.5507L8.2569 20.5596ZM0.947156 7.97861H23.9845V0L31.8483 0.781868C31.7946 1.30608 31.5623 1.75032 31.1423 2.1146C30.7223 2.47888 30.0164 2.70988 29.0155 2.8165V7.97861H44.4303V0L52.2941 0.781868C52.2405 1.30608 52.0081 1.75032 51.5881 2.1146C51.1681 2.47888 50.4622 2.70988 49.4613 2.8165V7.97861H62.4366L66.1361 3.44733C67.6553 4.64679 68.9421 5.67743 69.9876 6.53926C71.0331 7.40109 71.9804 8.2185 72.8204 9.00037C72.6595 9.83555 71.9536 10.2531 70.6936 10.2531H49.4613V14.9443C49.4613 15.1576 49.0682 15.4241 48.2818 15.7618C47.4954 16.0994 46.4946 16.2948 45.2971 16.3482H44.4303V10.2531H29.0155V15.2553C29.0155 15.513 28.5598 15.8062 27.6393 16.1171C26.7189 16.4281 25.7628 16.588 24.7708 16.588H23.9845V10.2531H1.41183L0.93822 7.98749L0.947156 7.97861ZM10.062 20.5596H64.6349L67.8608 16.4192C69.2727 17.5654 70.4702 18.5338 71.4353 19.3157C72.4004 20.0976 73.2582 20.8528 73.991 21.5813C73.7765 22.4165 73.0974 22.8341 71.9446 22.8341H10.062V20.5685V20.5596ZM17.3003 28.8492V26.4236L22.7245 28.8492H21.7773V65.0461C21.7773 65.2593 21.4198 65.5792 20.7139 66.0234C20.0079 66.4677 19.0785 66.6898 17.9258 66.6898H17.3003V28.8492ZM19.427 28.8492H38.2197L41.2044 25.2508C42.3571 26.2459 43.358 27.0988 44.189 27.8274C45.029 28.556 45.7886 29.2312 46.4677 29.862C46.2622 30.6972 45.5741 31.1148 44.4214 31.1148H19.4181V28.8492H19.427ZM19.427 59.111H38.8542L41.8388 55.3616C43.1435 56.4011 44.2337 57.2896 45.1005 58.0182C45.9673 58.7467 46.7358 59.4486 47.4239 60.1328C47.2094 60.968 46.5571 61.3855 45.458 61.3855H19.427V59.1199V59.111ZM19.4985 38.3115H41.2044V40.5772H19.4985V38.3115ZM19.4985 48.0849H41.2044V50.3505H19.4985V48.0849ZM29.0155 28.8492H33.421V39.5643H29.0155V28.8492ZM29.0155 48.0849H33.421V60.7547H29.0155V48.0849ZM62.1238 27.4454L69.9072 29.791C69.6927 30.2619 69.371 30.6617 68.9242 30.9993C68.4774 31.3369 67.8072 31.4791 66.9225 31.4258C65.037 38.4093 62.5617 44.5132 59.4877 49.7197C56.4226 54.9351 52.8303 59.3331 48.7107 62.9315C44.5912 66.5299 39.9444 69.4441 34.7525 71.692L33.8053 70.5992C38.4163 67.8893 42.6163 64.513 46.3873 60.4704C50.1584 56.4278 53.4022 51.6655 56.1009 46.1658C58.7996 40.666 60.8013 34.4289 62.1149 27.4365L62.1238 27.4454ZM39.4797 38.3115H38.7738L41.2937 35.7349L46.7984 39.8042C46.2712 40.4795 45.3329 40.9504 43.9656 41.208V51.6033C43.9656 51.7632 43.7422 51.9587 43.2954 52.1897C42.8486 52.4207 42.3393 52.6162 41.7584 52.7761C41.1776 52.936 40.6593 53.0071 40.1857 53.0071H39.4797V38.3115ZM47.0218 13.5228L54.8856 14.3846C54.832 14.8555 54.6264 15.282 54.26 15.6729C53.8937 16.0638 53.2592 16.3393 52.3745 16.4903C52.3209 21.2348 52.4818 25.9527 52.8481 30.6439C53.2145 35.3351 53.8937 39.7687 54.8945 43.9357C55.8864 48.1027 57.3162 51.8699 59.1838 55.2372C61.0426 58.5957 63.4464 61.35 66.3774 63.4824C66.9493 64.0066 67.3872 64.2376 67.6732 64.1843C67.9591 64.131 68.2361 63.7667 68.4953 63.0914C68.9153 62.2563 69.3889 61.1012 69.9072 59.6086C70.4344 58.1248 70.8991 56.6766 71.3191 55.2728L72.2663 55.4327L71.2476 65.828C72.2931 67.134 72.9097 68.1114 73.0974 68.76C73.285 69.4086 73.2136 69.9683 72.9008 70.4392C72.3199 71.1678 71.5336 71.4965 70.5417 71.4166C69.5497 71.3366 68.4595 71.0079 67.28 70.4392C66.1004 69.8617 65.0102 69.1598 64.0183 68.3246C60.6136 65.7214 57.8077 62.5228 55.6005 58.7467C53.4022 54.9707 51.6954 50.7237 50.489 46.0058C49.2826 41.288 48.4158 36.1969 47.8975 30.7239C47.3703 25.2508 47.0843 19.5201 47.0307 13.5228H47.0218ZM55.6005 11.0261C58.0668 11.497 59.9524 12.1456 61.266 12.9808C62.5796 13.816 63.4374 14.6778 63.8574 15.5574C64.2774 16.4459 64.3579 17.2366 64.0898 17.9385C63.8306 18.6405 63.3391 19.1025 62.6332 19.3068C61.9272 19.5112 61.1498 19.3601 60.3098 18.8359C59.9434 17.5832 59.2107 16.2948 58.1115 14.9621C57.0124 13.6294 55.8864 12.5543 54.7337 11.7191L55.6005 11.0172V11.0261Z" fill="white"/>
<path d="M17.926 140.426C19.2842 141.989 20.714 143.251 22.2153 144.219C23.7076 145.188 25.4144 145.899 27.3268 146.369C29.2391 146.84 31.4463 147.16 33.9305 147.347C36.4237 147.533 39.3637 147.622 42.7773 147.622H52.8036C56.396 147.622 59.9972 147.596 63.6163 147.542C67.2355 147.489 70.6133 147.409 73.7588 147.311V148.404C71.5069 148.875 70.1933 150.305 69.8269 152.704H42.8577C39.2922 152.704 36.1824 152.562 33.5374 152.278C30.8923 151.994 28.5689 151.461 26.5761 150.679C24.5834 149.897 22.8051 148.804 21.2323 147.391C19.6596 145.979 18.194 144.157 16.8268 141.918C15.7277 143.064 14.4766 144.317 13.0915 145.668C11.6975 147.027 10.3392 148.315 8.99877 149.541C7.65836 150.767 6.44304 151.825 5.3439 152.704C5.45113 153.229 5.42433 153.62 5.26348 153.877C5.10263 154.135 4.84348 154.375 4.4771 154.579L0.706055 148.013C2.11796 147.391 3.8337 146.565 5.85326 145.552C7.87282 144.539 9.946 143.455 12.0639 142.309C14.1907 141.163 16.1387 140.07 17.926 139.022V140.426ZM17.926 119.466V140.186L13.0468 143.233V118.684H1.49243L1.01882 116.339H11.9477L15.0128 112.429L21.7774 117.982C21.5183 118.24 21.0715 118.515 20.437 118.8C19.8115 119.084 18.9715 119.306 17.917 119.466H17.926ZM5.27241 85.3838C8.36431 86.4233 10.8664 87.5872 12.7788 88.8666C14.6911 90.146 16.1298 91.4432 17.1038 92.776C18.0689 94.1087 18.6408 95.3526 18.7928 96.5254C18.9536 97.6982 18.8196 98.6489 18.3996 99.3774C17.9796 100.106 17.3809 100.55 16.5945 100.71C15.8081 100.87 14.9145 100.604 13.9226 99.9283C13.5562 98.3646 12.8502 96.7208 11.7958 95.0061C10.7503 93.2824 9.57069 91.6476 8.25708 90.0839C6.94347 88.5201 5.6656 87.1696 4.40561 86.0146L5.27241 85.3926V85.3838ZM21.5451 109.151H62.6691L66.4401 104.46C67.3338 105.188 68.1469 105.837 68.8797 106.414C69.6125 106.992 70.372 107.614 71.1584 108.289C71.9448 108.964 72.6776 109.595 73.3567 110.164C73.1512 110.999 72.4363 111.416 71.2299 111.416H22.1795L21.554 109.151H21.5451ZM32.0808 84.2909L40.1054 86.6365C39.9446 87.1074 39.6318 87.4806 39.1582 87.7738C38.6846 88.0581 38.059 88.2003 37.2727 88.2003C35.8607 92.0563 34.1093 95.6191 32.045 98.871C29.9718 102.132 27.6842 104.851 25.1642 107.045L23.9846 106.263C25.7183 103.553 27.3089 100.257 28.7833 96.3743C30.2489 92.4917 31.348 88.4668 32.0897 84.2909H32.0808ZM29.8021 118.613V116.188L35.2263 118.613H62.3563V120.879H34.8331V141.598C34.8331 141.758 34.6186 141.963 34.2076 142.22C33.7876 142.478 33.2514 142.718 32.5991 142.922C31.9467 143.135 31.2765 143.233 30.5974 143.233H29.811V118.604L29.8021 118.613ZM30.9012 95.3082H59.8364L63.4555 90.6969C64.4027 91.4255 65.2338 92.0652 65.9755 92.616C66.7082 93.1669 67.4678 93.78 68.2542 94.4552C69.0406 95.1305 69.7465 95.7879 70.381 96.4099C70.1755 97.2451 69.5142 97.6626 68.415 97.6626H30.9012V95.317V95.3082ZM32.0093 135.574H63.1517V137.84H32.0093V135.574ZM44.7433 83.3491L52.7679 84.131C52.7143 84.6552 52.4641 85.1083 52.0173 85.4993C51.5704 85.8902 50.8466 86.1656 49.8547 86.3167V110.635H44.7433V83.3491ZM60.3904 118.613H59.6844L62.4368 115.566L68.4955 120.177C68.281 120.488 67.9146 120.79 67.3963 121.074C66.8691 121.359 66.2436 121.554 65.5108 121.661V141.047C65.5108 141.207 65.2606 141.43 64.7602 141.714C64.2597 141.998 63.6878 142.247 63.0266 142.46C62.3742 142.673 61.7576 142.771 61.1768 142.771H60.3904V118.613Z" fill="white"/>
<path d="M28.1488 235.032C31.6606 233.361 34.6632 231.549 37.1564 229.594C39.6495 227.639 41.687 225.543 43.2865 223.304C44.8861 221.065 46.1282 218.728 47.0218 216.302C47.9155 213.877 48.541 211.38 48.9074 208.795C49.2737 206.218 49.4614 203.57 49.4614 200.86C49.4614 194.863 48.7018 190.252 47.1827 187.018C45.6635 183.784 43.6172 182.167 41.0525 182.167C39.8998 182.167 38.6576 182.522 37.3172 183.224C35.9768 183.926 34.7257 184.921 33.5462 186.191C32.3666 187.471 31.33 188.964 30.4364 190.687C29.2836 193.086 28.3543 195.458 27.6483 197.804C26.9424 200.15 26.5849 202.7 26.5849 205.463C26.5849 206.973 26.6743 208.333 26.862 209.532C27.0496 210.732 27.139 211.958 27.139 213.21C27.139 213.992 26.9245 214.605 26.5134 215.05C26.0934 215.494 25.5662 215.716 24.9407 215.716C24.4671 215.716 24.0113 215.574 23.5645 215.289C23.1177 215.005 22.7424 214.499 22.4207 213.761C22.1616 213.237 21.9471 212.535 21.7952 211.647C21.6343 210.758 21.5182 209.861 21.4377 208.946C21.3573 208.03 21.3216 207.266 21.3216 206.636C21.3216 204.548 21.4913 202.166 21.8309 199.483C22.1705 196.8 22.5816 194.099 23.0462 191.389C23.5198 188.679 23.922 186.2 24.2615 183.961C24.6011 181.722 24.7709 180.025 24.7709 178.879C24.7709 177.733 24.6637 176.72 24.4581 175.832C24.2437 174.943 23.8594 174.037 23.2786 173.095C22.6977 172.153 21.9113 171.061 20.9194 169.808L21.9382 168.795C22.6709 169.053 23.2518 169.301 23.6718 169.541C24.0918 169.772 24.5922 170.074 25.1641 170.439C26.0577 171.114 26.8709 171.896 27.6037 172.784C28.3364 173.673 28.9083 174.561 29.3373 175.441C29.7573 176.329 29.9628 177.058 29.9628 177.626C29.9628 178.408 29.8556 179.11 29.65 179.741C29.4445 180.372 29.23 181.145 29.0245 182.087C28.6581 183.339 28.3543 184.574 28.1219 185.801C27.8896 187.027 27.6394 188.395 27.3713 189.905C27.2641 190.687 27.3356 191.087 27.5679 191.114C27.8002 191.14 28.1041 190.785 28.4705 190.056C29.6232 187.915 30.919 186.014 32.3666 184.352C33.8053 182.682 35.3513 181.385 37.0044 180.443C38.6576 179.501 40.2661 179.039 41.8389 179.039C44.7789 179.039 47.2006 179.963 49.1129 181.811C51.0252 183.659 52.4282 186.227 53.3218 189.514C54.2154 192.802 54.6622 196.658 54.6622 201.083C54.6622 206.298 53.8758 211.158 52.3031 215.663C50.7303 220.176 48.0852 224.201 44.3589 227.746C40.6325 231.291 35.5479 234.285 29.1049 236.738L28.1577 235.014L28.1488 235.032Z" fill="white"/>
<path d="M17.4612 315.955C16.8357 315.955 16.2191 315.679 15.6115 315.137C15.0127 314.586 14.4408 313.929 13.9225 313.147C13.297 312.054 12.6536 310.606 11.9923 308.811C11.34 307.016 10.786 305.009 10.3392 302.787C9.89235 300.575 9.66895 298.292 9.66895 295.946C9.66895 292.818 9.87448 290.029 10.2945 287.576C10.7145 285.124 11.2149 282.894 11.7868 280.895C12.3587 278.887 12.8323 277.128 13.1987 275.617C13.6187 273.796 14.0119 272.161 14.3783 270.731C14.7447 269.3 14.9591 267.959 15.0127 266.706C15.0664 265.346 14.7 264.005 13.9136 262.681C13.1272 261.357 12.1264 260.007 10.9289 258.656L12.1085 257.714C12.8949 257.972 13.5651 258.292 14.1102 258.656C14.6642 259.02 15.254 259.465 15.8795 259.989C16.3978 260.353 17.0412 260.984 17.8098 261.864C18.5693 262.752 19.2485 263.729 19.8561 264.796C20.4548 265.862 20.7587 266.946 20.7587 268.039C20.7587 268.874 20.5085 269.798 20.008 270.811C19.5076 271.824 18.7927 273.485 17.8455 275.777C16.9519 277.919 15.96 280.628 14.8608 283.907C13.7617 287.194 13.2076 290.739 13.2076 294.542C13.2076 296.577 13.3238 298.061 13.5651 299.002C13.7974 299.944 14.0476 300.673 14.3157 301.188C14.843 302.228 15.3881 302.228 15.9689 301.188C16.3889 300.566 16.9251 299.562 17.5774 298.176C18.2297 296.799 18.9446 295.28 19.7042 293.645C20.4638 292.001 21.1697 290.402 21.831 288.838C22.4833 287.274 23.0195 286.022 23.4395 285.089L25.2446 285.95C24.8782 286.946 24.4046 288.163 23.8327 289.629C23.2518 291.086 22.6799 292.596 22.0991 294.16C21.5182 295.724 20.9999 297.172 20.5263 298.496C20.0527 299.829 19.6863 300.859 19.4272 301.588C19.1144 302.787 18.8374 303.827 18.6051 304.715C18.3727 305.604 18.2476 306.386 18.2476 307.061C18.2476 308.154 18.48 309.3 18.9536 310.499C19.4272 311.699 19.6595 312.738 19.6595 313.627C19.6595 315.191 18.9268 315.972 17.4612 315.972V315.955ZM52.1334 311.574C48.2551 311.574 44.9398 311.13 42.1875 310.242C39.4352 309.353 37.219 308.029 35.539 306.252C33.859 304.484 32.6526 302.29 31.9199 299.686C31.6071 298.54 31.3658 297.376 31.2139 296.204C31.0531 295.031 30.9816 293.894 30.9816 292.801L32.7152 292.49C32.9207 293.432 33.2156 294.551 33.582 295.848C33.9484 297.154 34.3684 298.247 34.842 299.136C35.7356 300.699 36.8079 302.032 38.0679 303.125C39.3279 304.218 40.9543 305.053 42.9471 305.63C44.9398 306.208 47.4509 306.492 50.4981 306.492C53.17 306.492 55.3236 306.359 56.95 306.101C58.5763 305.844 59.8721 305.604 60.8461 305.399C61.8112 305.195 62.5886 305.088 63.1695 305.088C63.8486 305.088 64.4831 305.177 65.055 305.364C65.6269 305.55 66.1184 305.808 66.5116 306.146C66.9048 306.483 67.1014 306.945 67.1014 307.514C67.1014 308.554 66.4222 309.38 65.055 309.975C63.6878 310.57 61.8827 310.988 59.6308 311.228C57.3789 311.459 54.8857 311.583 52.1602 311.583L52.1334 311.574ZM42.3037 277.021C43.4028 276.186 44.6449 275.253 46.039 274.205C47.424 273.165 48.7198 272.188 49.9351 271.273C51.1415 270.358 51.9815 269.7 52.4551 269.282C52.7678 268.971 52.9108 268.714 52.884 268.501C52.8572 268.296 52.5176 268.136 51.8653 268.03C51.213 267.923 50.0423 267.87 48.3623 267.87C46.8968 267.87 44.9577 268.039 42.5449 268.376C40.1322 268.714 37.353 269.38 34.2075 270.366L33.582 268.492C35.5211 267.346 37.5228 266.43 39.596 265.755C41.6692 265.08 43.6977 264.582 45.6904 264.271C47.6832 263.96 49.5419 263.8 51.2755 263.8C53.8938 263.8 55.9938 263.934 57.5665 264.191C59.1393 264.449 60.5244 264.84 61.7308 265.364C62.5172 265.729 63.0801 266.155 63.4197 266.653C63.7593 267.15 63.9291 267.63 63.9291 268.101C63.9291 268.572 63.7861 268.963 63.5001 269.274C63.2142 269.585 62.678 269.798 61.8916 269.896C60.9444 270.002 60.0061 270.144 59.0589 270.322C58.1116 270.509 57.0125 270.882 55.7525 271.459C54.707 271.983 53.447 272.632 51.9815 273.414C50.5159 274.196 49.0415 275.031 47.576 275.919C46.1104 276.808 44.77 277.643 43.5636 278.425L42.3037 277.021Z" fill="white"/>
<path d="M21.7862 360.752H27.8449V362.005C25.4321 368.882 22.0007 375.208 17.5415 380.965C13.0824 386.723 7.63138 391.716 1.18844 395.936L0.241211 394.843C3.69949 391.876 6.81819 388.553 9.59733 384.874C12.3765 381.196 14.7892 377.313 16.8356 373.226C18.882 369.139 20.5351 364.981 21.7862 360.752ZM2.51992 360.601H61.3375L64.9566 355.99C65.9038 356.718 66.7081 357.358 67.3961 357.909C68.0753 358.46 68.8081 359.073 69.5944 359.748C70.3808 360.423 71.1136 361.054 71.7927 361.623C71.5872 362.458 70.8723 362.876 69.6659 362.876H3.22587L2.51992 360.61V360.601ZM5.9782 342.227H59.2196L62.7583 337.767C63.7055 338.495 64.5098 339.135 65.1979 339.686C65.877 340.237 66.6098 340.823 67.3961 341.445C68.1825 342.067 68.8885 342.671 69.5229 343.24C69.3085 344.075 68.6293 344.493 67.4766 344.493H6.60373L5.96926 342.227H5.9782ZM8.81095 351.29H56.8605L60.2383 347.149C61.0783 347.825 61.8379 348.411 62.517 348.909C63.1962 349.406 63.9021 349.948 64.6438 350.552C65.3766 351.156 66.0289 351.734 66.6098 352.311C66.3953 353.147 65.7162 353.564 64.5634 353.564H9.43648L8.81095 351.299V351.29ZM19.1858 331.823C21.5985 332.445 23.5377 333.218 25.0032 334.133C26.4687 335.048 27.5321 335.981 28.1845 336.949C28.8368 337.918 29.1942 338.842 29.2479 339.722C29.3015 340.61 29.1049 341.339 28.6581 341.907C28.2113 342.485 27.6215 342.831 26.8887 342.965C26.156 343.098 25.3696 342.876 24.5296 342.298C24.1096 340.575 23.2875 338.78 22.0543 336.905C20.8211 335.03 19.579 333.52 18.319 332.374L19.1858 331.823ZM20.9998 368.882V366.376L26.5849 368.882H59.3V371.227H26.1113V401.64C26.1113 401.8 25.8968 402.013 25.4857 402.307C25.0658 402.591 24.5296 402.84 23.8772 403.053C23.2249 403.257 22.5279 403.364 21.7951 403.364H21.0088V368.882H20.9998ZM23.3589 377.802H58.9068V380.068H23.3589V377.802ZM23.3589 386.794H58.9068V389.139H23.3589V386.794ZM23.3589 395.936H58.9068V398.202H23.3589V395.936ZM34.127 342.227H39.3189V361.694H34.127V342.227ZM48.8358 331.672L56.8605 333.938C56.646 334.355 56.3064 334.711 55.8417 334.995C55.3681 335.279 54.689 335.404 53.7954 335.35C52.6426 336.656 51.2128 338.105 49.506 339.686C47.7992 341.276 46.1103 342.671 44.4303 343.871H42.7771C43.8227 342.254 44.9129 340.272 46.0388 337.927C47.1648 335.581 48.0941 333.493 48.8269 331.672H48.8358ZM56.5388 368.882H55.8328L58.5851 365.754L64.8762 370.525C64.617 370.836 64.206 371.147 63.6609 371.467C63.1068 371.778 62.4634 371.991 61.7307 372.089V401.329C61.7307 401.489 61.4715 401.702 60.9443 401.996C60.417 402.28 59.8273 402.529 59.1749 402.742C58.5226 402.946 57.906 403.053 57.3251 403.053H56.5388V368.882Z" fill="white"/>
<path d="M21.1518 428.624C19.3199 434.354 16.7195 439.676 13.3685 444.572C10.0174 449.476 5.95149 453.777 1.17961 457.473L0.160889 456.38C2.62726 453.777 4.85235 450.907 6.84511 447.78C8.83786 444.652 10.5536 441.356 11.9923 437.891C13.431 434.426 14.6285 430.916 15.5668 427.371H21.1518V428.624ZM30.0433 422.831C31.4552 424.03 32.6794 425.061 33.6981 425.923C34.7169 426.785 35.6283 427.629 36.4147 428.464C36.2539 429.299 35.5747 429.717 34.3684 429.717H1.80513L1.17961 427.371H26.5046L30.0433 422.84V422.831ZM12.6625 464.35C13.3417 467.273 13.4578 469.858 13.02 472.133C12.5732 474.399 11.8493 476.273 10.8574 477.766C9.85658 479.25 8.83786 480.334 7.79233 481.009C7.16681 481.48 6.46979 481.817 5.71022 482.022C4.95065 482.226 4.25363 482.279 3.6281 482.182C3.00257 482.075 2.52896 481.737 2.2162 481.169C1.84982 480.44 1.87662 479.712 2.29662 478.983C2.71662 478.255 3.28853 477.633 4.03023 477.108C5.18299 476.433 6.3 475.465 7.37234 474.212C8.44467 472.959 9.36509 471.484 10.1247 469.796C10.8842 468.099 11.2864 466.296 11.34 464.359H12.6804L12.6625 464.35ZM24.5386 414.781C24.4314 415.359 24.1812 415.821 23.788 416.185C23.3948 416.549 22.7246 416.807 21.7863 416.967V459.028C21.7863 459.241 21.5718 459.499 21.1608 459.81C20.7408 460.121 20.2314 460.387 19.6238 460.591C19.025 460.805 18.4084 460.902 17.774 460.902H16.7553V414.07L24.5386 414.772V414.781ZM27.7556 463.257C27.702 463.728 27.4965 464.128 27.1301 464.465C26.7637 464.803 26.1829 465.025 25.3965 465.132V477.411C25.3965 477.988 25.6199 478.361 26.0667 478.548C26.5135 478.734 27.702 478.823 29.6411 478.823H40.8828C43.4474 478.823 45.6547 478.814 47.4866 478.788C49.3185 478.761 50.5785 478.725 51.2576 478.672C51.8385 478.619 52.2495 478.53 52.5176 478.397C52.7768 478.263 53.018 478.024 53.2236 477.65C53.5363 477.073 53.9027 476.078 54.3227 474.638C54.7427 473.208 55.1627 471.529 55.5827 469.592H56.6014L56.7623 477.961C57.7542 478.219 58.4244 478.512 58.764 478.823C59.1035 479.134 59.2733 479.578 59.2733 480.156C59.2733 480.733 59.041 481.24 58.5674 481.684C58.0937 482.128 57.2001 482.475 55.8955 482.741C54.5818 482.999 52.7142 483.186 50.2746 483.292C47.8351 483.399 44.627 483.452 40.6415 483.452H29.0782C26.6118 483.452 24.7531 483.31 23.4931 483.026C22.2331 482.741 21.3842 482.235 20.9374 481.498C20.4906 480.769 20.2672 479.729 20.2672 478.37V462.502L27.7378 463.284L27.7556 463.257ZM21.1518 435.812C24.0382 436.593 26.3705 437.535 28.1488 438.628C29.9271 439.721 31.2675 440.84 32.1611 441.987C33.0547 443.133 33.573 444.226 33.7339 445.274C33.8947 446.313 33.7964 447.193 33.4569 447.895C33.1173 448.597 32.5811 449.032 31.8484 449.183C31.1156 449.343 30.3024 449.13 29.4088 448.561C29.1497 447.051 28.5331 445.549 27.559 444.066C26.585 442.582 25.459 441.169 24.1812 439.845C22.8944 438.513 21.6254 437.384 20.3655 436.442L21.1518 435.82V435.812ZM33.3407 460.36C36.1734 461.356 38.4254 462.475 40.1053 463.719C41.7853 464.972 43.0275 466.207 43.8406 467.433C44.6538 468.659 45.1274 469.796 45.2525 470.836C45.3866 471.875 45.2525 472.737 44.8594 473.412C44.4662 474.088 43.9032 474.479 43.1704 474.585C42.4377 474.692 41.6245 474.425 40.7309 473.803C40.5164 472.346 39.9802 470.836 39.1224 469.272C38.2556 467.708 37.219 466.198 36.0126 464.741C34.8062 463.284 33.6267 462.031 32.4739 460.991L33.3407 460.369V460.36ZM43.0185 458.335C43.0185 458.495 42.8219 458.699 42.4287 458.957C42.0355 459.214 41.5262 459.463 40.8917 459.703C40.2662 459.934 39.5781 460.058 38.8453 460.058H37.9785V417.367L43.4028 419.872H65.2605V422.138H43.0096V458.335H43.0185ZM64.7958 430.649V432.995H40.8113V430.649H64.7958ZM64.7958 441.836V444.101H40.8113V441.836H64.7958ZM64.7958 452.782V455.127H40.8113V452.782H64.7958ZM58.1116 463.808C61.2571 465.114 63.795 466.509 65.7431 467.993C67.6822 469.476 69.1388 470.951 70.1039 472.408C71.069 473.865 71.6498 475.225 71.8375 476.478C72.0162 477.73 71.9179 478.743 71.5247 479.525C71.1315 480.307 70.5507 480.778 69.7911 480.929C69.0316 481.08 68.1826 480.796 67.2354 480.067C66.9226 478.343 66.2345 476.522 65.189 474.594C64.1435 472.666 62.9103 470.818 61.4895 469.041C60.0776 467.273 58.6567 465.754 57.2448 464.51L58.1116 463.808ZM61.4984 419.863L64.4116 416.656L70.783 421.578C70.5239 421.889 70.086 422.182 69.4873 422.44C68.8886 422.698 68.1916 422.911 67.4052 423.062V458.406C67.4052 458.566 67.155 458.77 66.6545 459.028C66.1541 459.285 65.5822 459.534 64.9209 459.774C64.2686 460.005 63.652 460.129 63.0712 460.129H62.2848V419.863H61.4984Z" fill="white"/>
<path d="M38.6131 554.985C37.9876 554.985 37.3978 554.753 36.8437 554.283C36.2897 553.812 36.0216 553.056 36.0216 552.017C36.0216 551.288 36.0752 550.204 36.1825 548.774C36.2897 547.344 36.3791 545.735 36.4595 543.967C36.5399 542.199 36.522 540.502 36.4237 538.885C36.3165 535.393 35.8697 532.932 35.0833 531.493C34.2969 530.062 32.885 529.343 30.8387 529.343C29.4714 529.343 28.0506 529.751 26.5493 530.551C25.057 531.36 23.6272 532.346 22.26 533.519C20.8928 534.691 19.6864 535.882 18.6409 537.073C17.8009 537.961 16.9877 538.912 16.2013 539.925C15.4149 540.938 14.6822 541.799 14.003 542.501C13.3239 543.203 12.6894 543.559 12.1175 543.559C11.3847 543.559 10.7771 543.283 10.3124 542.741C9.84772 542.199 9.60645 541.48 9.60645 540.591C9.60645 539.498 10.1962 538.388 11.3758 537.268C12.5554 536.149 14.012 534.7 15.7366 532.932C17.5149 531.004 19.2485 528.934 20.9285 526.713C22.6085 524.501 24.1276 522.235 25.4859 519.907C26.8532 517.588 27.988 515.385 28.9085 513.297C29.8289 511.209 30.4723 509.361 30.8387 507.744C30.9995 507.015 30.9995 506.482 30.8387 506.144C30.6778 505.807 30.2399 505.478 29.4982 505.167C29.0782 504.963 28.4885 504.767 27.7289 504.581C26.9693 504.403 26.1651 504.225 25.334 504.074V502.59C26.0668 502.43 26.7995 502.253 27.5323 502.04C28.2651 501.835 28.9174 501.755 29.4982 501.809C30.2846 501.809 31.2497 501.951 32.4114 502.235C33.5642 502.519 34.5829 502.91 35.4765 503.408C36.3701 503.905 36.8169 504.465 36.8169 505.087C36.8169 505.611 36.674 506.082 36.388 506.491C36.102 506.908 35.7714 507.53 35.405 508.366C34.985 509.147 34.4578 510.205 33.8323 511.529C33.2067 512.852 32.5723 514.15 31.9467 515.402C30.9459 517.384 29.811 519.445 28.5242 521.577C27.2374 523.719 25.5217 526.162 23.377 528.925C23.2162 529.138 23.1893 529.307 23.2966 529.432C23.4038 529.565 23.5557 529.547 23.7702 529.396C25.0302 528.774 26.3527 528.17 27.7378 527.601C29.1229 527.033 30.5527 526.739 32.0272 526.739C34.4935 526.739 36.4595 527.628 37.925 529.396C39.3905 531.173 40.2305 533.696 40.445 536.984C40.6058 538.441 40.722 540.147 40.8024 542.101C40.8829 544.056 40.9186 545.931 40.9186 547.734V551.999C40.9186 552.888 40.7309 553.598 40.3646 554.149C39.9982 554.7 39.4173 554.967 38.631 554.967L38.6131 554.985ZM20.7587 519.099C18.7124 519.099 17.1128 518.876 15.96 518.432C14.8073 517.988 13.8332 517.206 13.0469 516.087C12.2605 514.967 11.3669 513.386 10.375 511.36L11.9477 510.418C12.9396 511.511 13.8243 512.426 14.5839 513.155C15.3434 513.883 16.2639 514.416 17.3362 514.754C18.4085 515.091 19.8651 515.26 21.697 515.26C23.4306 515.207 25.2447 515.011 27.1659 514.674C29.0782 514.336 30.9906 513.901 32.9029 513.386C34.8152 512.861 36.6114 512.302 38.2914 511.706C39.9714 511.111 41.3833 510.542 42.536 510.027C44.1088 509.352 45.1722 508.845 45.7173 508.499C46.2713 508.161 46.8075 507.992 47.3258 507.992C48.1658 507.992 48.9075 508.152 49.5688 508.463C50.2211 508.774 50.5517 509.298 50.5517 510.027C50.5517 510.551 50.382 510.995 50.0424 511.36C49.7028 511.724 49.1666 512.062 48.4339 512.373C47.3884 512.995 45.8156 513.688 43.7156 514.443C41.6156 515.198 39.2476 515.927 36.6025 516.628C33.9574 517.33 31.2587 517.917 28.5063 518.388C25.754 518.859 23.1715 519.09 20.7587 519.09V519.099ZM39.319 566.633C34.708 566.633 31.0531 566.179 28.3455 565.264C25.6468 564.349 23.7344 563.105 22.6085 561.515C21.4825 559.924 20.9196 558.112 20.9196 556.077C20.9196 554.46 21.3485 552.843 22.2153 551.226C23.0821 549.609 24.3153 548.019 25.9149 546.455C27.5144 544.891 29.3463 543.328 31.4195 541.764C33.4927 540.2 35.7088 538.69 38.068 537.233C40.168 535.882 42.4556 534.585 44.9488 533.359C47.442 532.133 49.8726 530.978 52.2585 529.876C54.6445 528.783 56.6998 527.761 58.4334 526.828C59.5862 526.206 59.6934 525.345 58.7462 524.252C58.3798 523.728 57.8526 523.248 57.1734 522.803C56.4943 522.359 55.8062 521.986 55.127 521.666L55.9938 520.262C57.3521 520.573 58.4602 520.875 59.3002 521.16C60.1402 521.444 60.873 521.826 61.4985 522.297C62.124 522.715 62.7406 523.266 63.3483 523.941C63.947 524.616 64.4653 525.327 64.8853 526.055C65.3053 526.784 65.5197 527.512 65.5197 528.241C65.5197 528.765 65.4304 529.156 65.2427 529.414C65.0551 529.671 64.7066 529.894 64.1793 530.08C63.6521 530.267 62.8925 530.507 61.9006 530.827C60.2206 531.351 58.3619 531.99 56.3155 532.746C54.2692 533.501 52.1602 534.336 49.9888 535.251C47.8173 536.166 45.6637 537.117 43.5369 538.103C41.4101 539.098 39.4888 540.085 37.7552 541.071C35.1369 542.581 32.8046 544.145 30.7582 545.762C28.7119 547.379 27.0855 549.023 25.8791 550.684C24.6727 552.355 24.074 553.998 24.074 555.606C24.074 557.01 24.5566 558.174 25.5306 559.089C26.4957 560.004 27.8719 560.68 29.6591 561.124C31.4374 561.568 33.5106 561.79 35.8697 561.79C39.5424 561.79 42.5539 561.586 44.9131 561.168C47.2722 560.751 49.2113 560.351 50.7305 559.96C52.2496 559.569 53.59 559.374 54.7428 559.374C55.69 559.374 56.4496 559.462 57.0215 559.649C57.6023 559.836 58.0313 560.093 58.3172 560.431C58.6032 560.769 58.7462 561.204 58.7462 561.719C58.7462 562.297 58.5853 562.83 58.2726 563.319C57.9598 563.816 57.2002 564.216 55.9938 564.527C55.1538 564.731 53.8134 565.007 51.9815 565.344C50.1496 565.682 48.1122 565.984 45.8871 566.242C43.662 566.499 41.4726 566.633 39.319 566.633Z" fill="white"/>
<path d="M25.9505 599.542C25.736 599.959 25.4143 600.262 24.9675 600.439C24.5207 600.626 23.8237 600.608 22.8854 600.404C21.3663 602.803 19.4629 605.433 17.1842 608.302C14.9054 611.172 12.3765 613.998 9.59739 616.787C6.81826 619.577 3.90508 622.118 0.866804 624.411L0 623.469C2.51999 620.866 4.95061 617.934 7.30975 614.673C9.66888 611.412 11.8135 608.134 13.7616 604.819C15.7008 601.514 17.2467 598.529 18.3995 595.864L25.9505 599.542ZM24.5386 584.136C24.2794 584.553 23.9399 584.829 23.5199 584.953C23.0999 585.086 22.4475 585.068 21.5539 584.917C20.0884 586.694 18.2654 588.631 16.085 590.746C13.9046 592.86 11.5365 594.931 8.97186 596.965C6.39826 599 3.77998 600.821 1.10808 602.438L0.16085 601.497C2.35914 599.515 4.54848 597.276 6.7289 594.771C8.90037 592.265 10.9199 589.742 12.7876 587.183C14.6463 584.633 16.1565 582.332 17.3093 580.306L24.5475 584.136H24.5386ZM18.7927 610.408C18.4799 611.083 17.6667 611.554 16.3531 611.812V650.203C16.3531 650.363 16.1565 650.577 15.7633 650.87C15.3701 651.154 14.8608 651.421 14.2263 651.652C13.6008 651.883 12.9663 652.007 12.3408 652.007H11.3221V612.132L14.0744 608.613L18.7927 610.408ZM67.4677 621.194C68.9332 622.394 70.1932 623.424 71.2387 624.286C72.2843 625.148 73.2047 625.992 73.9911 626.827C73.7766 627.662 73.0975 628.08 71.9447 628.08H23.0373L22.4118 625.734H63.929L67.4677 621.203V621.194ZM64.0898 609.857C64.9835 610.532 65.7788 611.163 66.4847 611.732C67.1907 612.309 67.9413 612.914 68.7277 613.571C69.5141 614.22 70.22 614.859 70.8545 615.49C70.64 616.325 69.9341 616.743 68.7277 616.743H26.9692L26.3437 614.477H60.3903L64.0898 609.866V609.857ZM31.6875 629.715C34.413 630.39 36.6113 631.199 38.2913 632.14C39.9713 633.082 41.2134 634.06 42.0266 635.072C42.8398 636.085 43.3134 637.054 43.4385 637.969C43.5725 638.884 43.4295 639.666 43.0095 640.315C42.5895 640.963 42.0176 641.354 41.2759 641.487C40.5432 641.621 39.73 641.425 38.8364 640.901C38.47 639.755 37.8355 638.529 36.9508 637.223C36.0572 635.917 35.0743 634.655 34.0019 633.429C32.9296 632.203 31.893 631.172 30.8922 630.337L31.6785 629.715H31.6875ZM30.9815 581.239L36.7989 583.745H58.5852L61.1052 580.697L66.7707 585.077C66.5115 585.335 66.172 585.584 65.752 585.824C65.332 586.055 64.7332 586.232 63.9469 586.33V608.302C63.9469 608.462 63.5269 608.747 62.6869 609.164C61.8469 609.582 60.8282 609.786 59.6218 609.786H58.8354V586.019H35.8696V609.084C35.8696 609.297 35.5121 609.591 34.8062 609.982C34.1002 610.373 33.0904 610.568 31.7768 610.568H30.9905V581.248L30.9815 581.239ZM61.4984 594.22V596.565H33.9751V594.22H61.4984ZM61.4984 604.775V607.121H33.9751V604.775H61.4984ZM59.3716 644.49C59.3716 645.85 59.175 647.058 58.7818 648.124C58.3886 649.19 57.6112 650.052 56.4584 650.701C55.3056 651.35 53.5184 651.812 51.1146 652.069C51.061 651.287 50.918 650.585 50.6857 649.955C50.4533 649.333 50.0959 648.808 49.6223 648.391C48.9967 647.973 48.1567 647.618 47.1023 647.334C46.0568 647.049 44.6091 646.774 42.7772 646.516V645.343C44.4572 645.45 45.8602 645.539 46.9861 645.619C48.1121 645.699 49.1844 645.761 50.212 645.814C51.2308 645.868 51.9278 645.894 52.2942 645.894C53.0805 645.894 53.5899 645.779 53.8312 645.539C54.0635 645.308 54.1886 644.926 54.1886 644.402V615.082H59.3805V644.482L59.3716 644.49Z" fill="white"/>
<path d="M16.1208 690.39C14.7089 690.39 13.3596 690.168 12.0728 689.724C10.786 689.279 9.6332 688.515 8.61449 687.414C7.59577 686.321 6.65748 684.784 5.82642 682.802L7.08641 681.86C8.71278 683.264 10.1783 684.339 11.4919 685.068C12.8055 685.796 14.3515 686.187 16.1298 686.241C18.3817 686.241 20.5442 686.045 22.6174 685.654C24.6906 685.263 26.5403 684.837 28.1578 684.366C30.6241 683.584 32.8224 682.776 34.7616 681.94C36.7007 681.105 38.3539 680.323 39.7122 679.595C40.2841 679.284 40.7845 679.035 41.2045 678.848C41.6245 678.662 41.9909 678.573 42.3037 678.573C42.7237 678.573 43.1794 678.653 43.6798 678.804C44.1802 678.964 44.6092 679.195 44.9756 679.506C45.3419 679.817 45.5296 680.208 45.5296 680.679C45.5296 681.407 45.2794 682.012 44.779 682.474C44.2785 682.944 43.3224 683.469 41.9105 684.037C41.2849 684.348 40.15 684.81 38.5326 685.406C36.9062 686.001 35.0833 686.632 33.0637 687.28C31.0441 687.929 29.0693 688.462 27.1301 688.88C25.611 689.244 23.8506 689.581 21.8578 689.892C19.8651 690.203 17.9527 690.363 16.1208 690.363V690.39ZM10.6162 730.656C10.0353 730.656 9.52597 730.345 9.07916 729.714C8.63236 729.092 8.40895 728.337 8.40895 727.449C8.40895 726.88 8.48938 726.391 8.64129 726C8.80214 725.61 9.02555 725.183 9.3115 724.712C9.59746 724.241 9.9281 723.673 10.2945 722.989C12.18 720.065 14.137 716.627 16.1566 712.664C18.1761 708.702 20.0706 704.037 21.8578 698.671C22.537 696.743 23.1982 694.672 23.8238 692.451C24.4493 690.239 25.0391 688.044 25.5931 685.885C26.1472 683.726 26.6029 681.692 26.9693 679.79C27.3357 677.889 27.6037 676.281 27.7557 674.984C27.8093 674.148 27.7199 673.526 27.4786 673.109C27.2463 672.691 26.7816 672.327 26.1025 672.016C25.3697 671.705 24.5923 671.43 23.7791 671.199C22.9659 670.968 22.1884 670.772 21.4557 670.612L21.5361 668.817C22.3225 668.613 23.0821 668.453 23.8148 668.347C24.5476 668.24 25.3876 668.24 26.3348 668.347C27.2284 668.4 28.2471 668.604 29.3999 668.969C30.5527 669.333 31.5624 669.804 32.4292 670.372C33.296 670.95 33.725 671.518 33.725 672.096C33.725 672.514 33.6177 673.011 33.4122 673.58C33.1977 674.157 32.9565 674.833 32.6616 675.614C32.3756 676.396 32.0986 677.285 31.8395 678.271C31.4195 679.781 30.8833 681.763 30.231 684.215C29.5786 686.667 28.828 689.262 27.988 691.998C27.148 694.735 26.2812 697.409 25.3965 700.012C24.5029 702.616 23.5646 705.29 22.5638 708.026C21.5629 710.763 20.5621 713.411 19.5344 715.961C18.5157 718.519 17.5327 720.847 16.5855 722.962C15.6383 725.076 14.7536 726.809 13.9136 728.16C13.44 729.048 12.9664 729.688 12.5017 730.079C12.0281 730.47 11.4026 730.665 10.6162 730.665V730.656ZM52.3747 730.034C48.0228 730.034 44.2517 729.306 41.0526 727.849C37.8535 726.391 35.682 723.966 34.5292 720.581C33.9037 719.124 33.5194 717.675 33.3854 716.245C33.2514 714.814 33.2424 713.42 33.3497 712.06H35.2352C35.3424 713.206 35.539 714.379 35.825 715.579C36.1109 716.778 36.6024 717.951 37.2816 719.097C38.5415 721.185 40.3109 722.695 42.5896 723.628C44.8683 724.57 47.6117 725.032 50.8108 725.032C53.2772 725.032 55.2521 724.899 56.7444 724.641C58.2368 724.383 59.4342 724.135 60.3189 723.895C61.2125 723.664 62.0257 723.539 62.7584 723.539C63.3303 723.539 63.9112 723.628 64.492 723.815C65.0639 724.001 65.5554 724.286 65.9486 724.677C66.3418 725.068 66.5384 725.574 66.5384 726.205C66.5384 726.987 66.1095 727.6 65.2427 728.044C64.3759 728.488 63.3929 728.817 62.2938 729.021C61.1946 729.279 59.8006 729.519 58.1295 729.723C56.4495 729.928 54.5372 730.034 52.3925 730.034H52.3747ZM48.3623 702.038C49.256 701.416 50.2479 700.732 51.347 700.003C52.4461 699.275 53.4559 698.582 54.3764 697.933C55.2968 697.285 55.8866 696.796 56.1457 696.485C56.8248 696.014 56.7444 695.65 55.9134 695.392C54.9661 695.028 53.9206 694.779 52.7678 694.646C51.6151 694.513 50.4891 694.45 49.39 694.45C47.71 694.45 46.039 694.557 44.359 694.761C42.679 694.975 41.0079 695.259 39.3279 695.623L38.9347 693.828C40.713 693.046 42.7862 692.38 45.1453 691.838C47.5045 691.287 49.944 691.021 52.4551 691.021C54.9661 691.021 57.0036 691.234 58.7104 691.643C60.4172 692.06 61.6861 692.478 62.5261 692.895C63.3661 693.366 64.0184 693.891 64.492 694.459C64.9657 695.037 65.198 695.659 65.198 696.334C65.198 696.956 64.912 697.418 64.3312 697.702C63.7503 697.987 63.0176 698.155 62.1329 698.209C61.4538 698.262 60.7836 698.369 60.1312 698.52C59.4789 698.68 58.6746 698.99 57.7363 699.461C56.53 699.879 55.1538 700.474 53.6078 701.256C52.0619 702.038 50.6589 702.767 49.3989 703.442L48.3802 702.038H48.3623Z" fill="white"/>
<path d="M65.9754 766C65.1354 766 64.4563 765.751 63.929 765.253C63.4018 764.756 62.9103 763.939 62.4367 762.792C61.6503 761.122 60.7478 759.496 59.7201 757.906C58.7014 756.315 57.4682 754.752 56.0206 753.214C54.5818 751.677 52.7857 750.123 50.6321 748.559L51.4989 747.226C55.8508 748.63 59.2554 750.247 61.7218 752.077C64.1882 753.899 66.0201 755.729 67.2265 757.55C67.852 758.492 68.2899 759.345 68.5222 760.127C68.7545 760.909 68.8796 761.717 68.8796 762.552C68.8796 763.645 68.6026 764.498 68.0575 765.094C67.5035 765.698 66.8154 765.991 65.9754 765.991V766Z" fill="white"/>
</svg>
